<svg width="1600" height="900" viewBox="0 0 1600 900" fill="none" xmlns="http://www.w3.org/2000/svg">
  <rect width="1600" height="900" rx="48" fill="#09111E"/>
  <circle cx="220" cy="182" r="180" fill="#3156B6" fill-opacity="0.12"/>
  <rect x="74" y="74" width="1452" height="752" rx="42" fill="#0B1220" stroke="#1B2943"/>
  <rect x="136" y="130" width="1328" height="54" rx="18" fill="#101B2F"/>
  <rect x="178" y="148" width="142" height="18" rx="9" fill="#F8FAFC" fill-opacity="0.92"/>
  <rect x="136" y="228" width="292" height="534" rx="30" fill="#101C31"/>
  <rect x="470" y="228" width="994" height="534" rx="30" fill="#101C31"/>
  <rect x="184" y="276" width="132" height="20" rx="10" fill="#F8FAFC" fill-opacity="0.92"/>
  <rect x="184" y="324" width="196" height="14" rx="7" fill="#93A4C8" fill-opacity="0.84"/>
  <rect x="184" y="370" width="196" height="14" rx="7" fill="#203A7D"/>
  <rect x="184" y="412" width="196" height="14" rx="7" fill="#203A7D"/>
  <rect x="184" y="454" width="196" height="14" rx="7" fill="#203A7D"/>
  <rect x="528" y="278" width="344" height="18" rx="9" fill="#F8FAFC" fill-opacity="0.92"/>
  <rect x="528" y="322" width="244" height="16" rx="8" fill="#93A4C8" fill-opacity="0.86"/>
  <rect x="528" y="386" width="878" height="90" rx="28" fill="#13203A"/>
  <rect x="560" y="418" width="324" height="18" rx="9" fill="#F8FAFC" fill-opacity="0.92"/>
  <rect x="926" y="418" width="180" height="18" rx="9" fill="#3156B6"/>
  <rect x="528" y="508" width="878" height="90" rx="28" fill="#13203A"/>
  <rect x="560" y="540" width="356" height="18" rx="9" fill="#F8FAFC" fill-opacity="0.92"/>
  <rect x="958" y="540" width="168" height="18" rx="9" fill="#1B2F54"/>
  <rect x="528" y="630" width="878" height="90" rx="28" fill="#13203A"/>
  <rect x="560" y="662" width="308" height="18" rx="9" fill="#F8FAFC" fill-opacity="0.92"/>
  <rect x="912" y="662" width="194" height="18" rx="9" fill="#3156B6"/>
  <text x="136" y="790" fill="#F8FAFC" font-family="Arial, sans-serif" font-size="34" font-weight="700">Portal B2B escalável</text>
  <text x="136" y="831" fill="#93A4C8" font-family="Arial, sans-serif" font-size="24">Catálogo técnico • filtros avançados • performance</text>
</svg>
