<svg width="1600" height="900" viewBox="0 0 1600 900" fill="none" xmlns="http://www.w3.org/2000/svg">
  <rect width="1600" height="900" rx="48" fill="#08111F"/>
  <circle cx="1260" cy="190" r="220" fill="#3156B6" fill-opacity="0.18"/>
  <circle cx="340" cy="710" r="240" fill="#4F74D4" fill-opacity="0.12"/>
  <rect x="80" y="80" width="1440" height="740" rx="36" fill="#0B1220" stroke="#1C2A45"/>
  <rect x="140" y="144" width="1320" height="56" rx="16" fill="#0F1A2E"/>
  <rect x="176" y="164" width="174" height="16" rx="8" fill="#3156B6"/>
  <rect x="1240" y="162" width="156" height="20" rx="10" fill="#223659"/>
  <rect x="140" y="236" width="652" height="470" rx="28" fill="#101C31"/>
  <rect x="186" y="288" width="324" height="24" rx="12" fill="#F8FAFC" fill-opacity="0.92"/>
  <rect x="186" y="334" width="226" height="18" rx="9" fill="#93A4C8" fill-opacity="0.9"/>
  <rect x="186" y="390" width="560" height="210" rx="22" fill="url(#grid-a)"/>
  <rect x="840" y="236" width="620" height="212" rx="28" fill="#101C31"/>
  <rect x="886" y="286" width="258" height="22" rx="11" fill="#F8FAFC" fill-opacity="0.92"/>
  <rect x="886" y="332" width="180" height="16" rx="8" fill="#93A4C8" fill-opacity="0.88"/>
  <rect x="886" y="382" width="528" height="18" rx="9" fill="#203A7D"/>
  <rect x="886" y="418" width="464" height="18" rx="9" fill="#17253D"/>
  <rect x="840" y="486" width="300" height="220" rx="28" fill="#101C31"/>
  <rect x="1180" y="486" width="280" height="220" rx="28" fill="#101C31"/>
  <rect x="886" y="540" width="208" height="18" rx="9" fill="#F8FAFC" fill-opacity="0.92"/>
  <rect x="886" y="576" width="164" height="16" rx="8" fill="#93A4C8" fill-opacity="0.88"/>
  <rect x="1226" y="540" width="188" height="18" rx="9" fill="#F8FAFC" fill-opacity="0.92"/>
  <rect x="1226" y="576" width="140" height="16" rx="8" fill="#93A4C8" fill-opacity="0.88"/>
  <rect x="1226" y="614" width="142" height="54" rx="18" fill="#3156B6"/>
  <text x="140" y="794" fill="#F8FAFC" font-family="Arial, sans-serif" font-size="34" font-weight="700">Replatform Shopify Plus</text>
  <text x="140" y="835" fill="#93A4C8" font-family="Arial, sans-serif" font-size="24">Moda premium • performance • autonomia comercial</text>
  <defs>
    <linearGradient id="grid-a" x1="186" y1="390" x2="746" y2="600" gradientUnits="userSpaceOnUse">
      <stop stop-color="#3156B6"/>
      <stop offset="1" stop-color="#182741"/>
    </linearGradient>
  </defs>
</svg>
