<svg width="1600" height="900" viewBox="0 0 1600 900" fill="none" xmlns="http://www.w3.org/2000/svg">
  <rect width="1600" height="900" rx="48" fill="#07101D"/>
  <path d="M0 710C188 612 315 578 520 602C701 623 844 707 1036 709C1218 711 1361 633 1600 486V900H0V710Z" fill="#3156B6" fill-opacity="0.14"/>
  <rect x="76" y="76" width="1448" height="748" rx="40" fill="#0B1220" stroke="#1B2943"/>
  <rect x="140" y="132" width="1320" height="40" rx="20" fill="#111D32"/>
  <rect x="176" y="144" width="138" height="16" rx="8" fill="#F8FAFC" fill-opacity="0.92"/>
  <rect x="140" y="220" width="560" height="480" rx="32" fill="url(#panel-b)"/>
  <rect x="760" y="220" width="624" height="152" rx="32" fill="#101C31"/>
  <rect x="760" y="402" width="624" height="298" rx="32" fill="#101C31"/>
  <circle cx="420" cy="460" r="118" fill="#203A7D"/>
  <rect x="252" y="602" width="336" height="18" rx="9" fill="#F8FAFC" fill-opacity="0.92"/>
  <rect x="296" y="638" width="248" height="16" rx="8" fill="#C9D5F1" fill-opacity="0.82"/>
  <rect x="812" y="272" width="238" height="18" rx="9" fill="#F8FAFC" fill-opacity="0.92"/>
  <rect x="812" y="308" width="162" height="16" rx="8" fill="#93A4C8" fill-opacity="0.86"/>
  <rect x="812" y="464" width="520" height="20" rx="10" fill="#F8FAFC" fill-opacity="0.92"/>
  <rect x="812" y="508" width="440" height="16" rx="8" fill="#93A4C8" fill-opacity="0.86"/>
  <rect x="812" y="560" width="252" height="84" rx="26" fill="#3156B6"/>
  <rect x="1096" y="560" width="236" height="84" rx="26" fill="#1A2A46"/>
  <text x="140" y="778" fill="#F8FAFC" font-family="Arial, sans-serif" font-size="34" font-weight="700">Storefront Next Commerce</text>
  <text x="140" y="819" fill="#93A4C8" font-family="Arial, sans-serif" font-size="24">Headless commerce • narrativa editorial • componentes modulares</text>
  <defs>
    <linearGradient id="panel-b" x1="140" y1="220" x2="700" y2="700" gradientUnits="userSpaceOnUse">
      <stop stop-color="#203A7D"/>
      <stop offset="1" stop-color="#0F192B"/>
    </linearGradient>
  </defs>
</svg>
