<svg xmlns="http://www.w3.org/2000/svg" viewBox="0 0 64 64">
  <defs>
    <linearGradient id="jp-gradient" x1="8" y1="8" x2="56" y2="56" gradientUnits="userSpaceOnUse">
      <stop stop-color="#4F74D4" />
      <stop offset="1" stop-color="#203A7D" />
    </linearGradient>
  </defs>
  <rect width="64" height="64" rx="20" fill="#0B1220" />
  <rect x="6" y="6" width="52" height="52" rx="18" fill="url(#jp-gradient)" fill-opacity="0.14" stroke="#3156B6" stroke-opacity="0.35" />
  <path d="M22 18h9v19.4c0 5.8-3.2 9.6-9.4 9.6-2 0-3.8-.4-5.4-1.2v-7.8c1.1.6 2.3 1 3.8 1 1.5 0 2.4-.7 2.4-2.6V18Zm16 0h10.2c8.2 0 13 5.1 13 13.9 0 8.9-4.8 14.1-13 14.1H38V18Zm9 8.2v11.6h1.4c3.2 0 5.2-2.1 5.2-5.8 0-3.7-2-5.8-5.2-5.8H47Z" fill="#F8FAFC" />
</svg>
