<svg width="120" height="37" viewBox="0 0 120 47" fill="none" xmlns="http://www.w3.org/2000/svg">
<path d="M19.2757 24.0921C19.2757 20.9584 17.8636 18.745 12.1543 18.745C6.44507 18.745 2.57779 20.9572 2.57779 25.259C1.41092 23.5998 0.920377 22.0634 0.920377 20.7725C0.920377 16.5935 6.1998 14.4432 12.1543 14.4432C19.9508 14.4432 24.1872 18.1311 24.1872 24.3376V46.3386C22.7132 45.7235 21.4249 45.54 20.1354 45.54C17.3111 45.54 14.7333 46.6461 11.3566 46.6461C5.76997 46.6461 0 44.2491 0 37.6124C0 25.7513 17.1278 29.9922 19.2757 24.0921ZM19.4603 28.9469C18.2946 33.0651 4.91151 30.3605 4.91151 37.6731C4.91151 40.3777 6.93683 42.7127 12.2163 42.7127C16.6979 42.7127 19.4603 41.0535 19.4603 41.0535V28.9469Z" fill="white"/>
<path d="M67.1827 24.0921C67.1827 20.9584 65.7706 18.745 60.0613 18.745C54.3521 18.745 50.4848 20.9572 50.4848 25.259C49.3179 23.5998 48.8274 22.0634 48.8274 20.7725C48.8274 16.5935 54.1068 14.4432 60.0613 14.4432C67.8578 14.4432 72.0942 18.1311 72.0942 24.3376V46.3386C70.6202 45.7235 69.3319 45.54 68.0424 45.54C65.2181 45.54 62.6403 46.6461 59.2636 46.6461C53.6769 46.6461 47.907 44.2491 47.907 37.6124C47.907 25.7513 65.0347 29.9922 67.1827 24.0921ZM67.3673 28.9469C66.2004 33.0651 52.8185 30.3605 52.8185 37.6731C52.8185 40.3777 54.8438 42.7127 60.1232 42.7127C64.6049 42.7127 67.3673 41.0535 67.3673 41.0535V28.9469Z" fill="white"/>
<path d="M47.2355 37.6111C47.2355 35.9337 47.5694 34.5747 48.145 33.4564V17.8224C48.145 14.7495 43.2334 14.7495 43.2334 14.7495V41.237C43.2334 41.237 40.3485 42.5279 35.8668 42.5279C30.4028 42.5279 28.4382 40.3156 28.4382 36.505V17.8224C28.4382 14.8115 23.5267 14.7495 23.5267 14.7495V37.4263C23.5267 44.6782 29.4205 46.6449 35.0059 46.6449C38.5053 46.6449 41.2069 45.354 44.1526 45.354C45.3802 45.354 46.7316 45.5995 48.1425 46.3374V41.7135C47.5658 40.5697 47.2331 39.2132 47.2331 37.6111H47.2355Z" fill="white"/>
<path d="M115.09 24.0921C115.09 20.9584 113.678 18.745 107.968 18.745C102.259 18.745 98.3917 20.9572 98.3917 25.259C97.2261 23.5998 96.7343 22.0634 96.7343 20.7725C96.7343 16.5935 102.014 14.4432 107.968 14.4432C115.765 14.4432 120 18.1311 120 24.3376V46.3386C118.527 45.7235 117.238 45.54 115.948 45.54C113.124 45.54 110.546 46.6461 107.169 46.6461C101.583 46.6461 95.8115 44.2491 95.8115 37.6124C95.8115 25.7513 112.939 29.9922 115.087 24.0921H115.09ZM115.274 28.9469C114.107 33.0651 100.725 30.3605 100.725 37.6731C100.725 40.3777 102.751 42.7127 108.03 42.7127C112.512 42.7127 115.274 41.0535 115.274 41.0535V28.9469Z" fill="white"/>
<path d="M95.1425 37.6112C95.1425 35.9338 95.4764 34.5748 96.0519 33.4553V24.1517C96.0519 18.068 91.0797 14.4421 85.3085 14.4421C77.8812 14.4421 75.732 17.8225 75.732 17.8225C75.732 17.8225 76.3464 16.4088 76.3464 12.2298V3.68835C76.3452 -0.122318 71.8028 0.000449858 71.4349 0.000449858V43.2646C71.4349 46.3375 76.3464 46.3375 76.3464 46.3375V24.4592C76.3464 20.8941 80.4589 18.4363 84.5108 18.4363C88.3174 18.4363 91.1404 20.4638 91.1404 25.0731V43.2634C91.1404 46.2755 96.0519 46.3363 96.0519 46.3363V41.7124C95.4752 40.5686 95.1425 39.2108 95.1425 37.6088V37.6112Z" fill="white"/>
</svg>
