<svg width="32" height="32" viewBox="0 0 32 32" fill="none" xmlns="http://www.w3.org/2000/svg">
<path d="M30.9988 8.44035V8.0861C30.9988 7.94858 30.9914 7.74231 30.9335 7.52109C30.7079 6.6646 29.9851 6.13247 29.0441 6.13247C27.4382 6.13247 25.8159 6.13098 24.1952 6.12799C22.3147 6.12649 20.4312 6.125 18.57 6.125L18.5151 6.12649L18.5107 10.6391H23.692L16.9745 17.8991L12.0098 14.66C10.8551 13.9066 9.34273 14.1607 8.49228 15.2519L1 24.875H6.63999L10.9739 19.3101L15.8243 22.4745C16.8899 23.168 18.2984 23.0021 19.1756 22.0769L26.5254 14.1353V15.2683L26.5284 24.7928H26.7762V24.7868H30.9839V18.7705C30.9899 18.7062 30.9929 18.6539 30.9943 18.6016C31.0018 15.1951 31.0003 11.7617 30.9988 8.44035Z" fill="#F50480"/>
</svg>
