<svg width="274" height="32" viewBox="0 0 274 32" fill="none" xmlns="http://www.w3.org/2000/svg">
<g clip-path="url(#clip0_6_26)">
<path d="M135.707 8.86077V30.9776H129.768L128.65 26.1262C128.22 27.0033 127.634 27.7901 126.896 28.4868C126.158 29.1834 125.303 29.7773 124.335 30.2659C123.367 30.7546 122.311 31.128 121.17 31.3861C120.029 31.6442 118.849 31.7745 117.63 31.7745C115.737 31.7745 113.973 31.4913 112.337 30.9225C110.701 30.3562 109.28 29.5543 108.077 28.5193C106.871 27.4844 105.921 26.2415 105.225 24.7906C104.53 23.3397 104.182 21.7234 104.182 19.9392C104.182 18.1551 104.52 16.629 105.193 15.1856C105.868 13.7422 106.791 12.4943 107.969 11.4443C109.145 10.3944 110.526 9.57745 112.112 8.98607C113.698 8.39719 115.402 8.10149 117.223 8.10149C118.601 8.10149 119.919 8.24934 121.183 8.54253C122.446 8.83822 123.604 9.25169 124.657 9.78293C125.71 10.3142 126.649 10.9557 127.467 11.7024C128.285 12.4492 128.93 13.2761 129.403 14.1807L130.393 8.85576H135.709L135.707 8.86077ZM128.002 19.8565C128.002 18.9369 127.802 18.0974 127.399 17.3331C126.996 16.5713 126.441 15.9148 125.73 15.361C125.02 14.8072 124.185 14.3812 123.224 14.078C122.263 13.7773 121.23 13.6244 120.125 13.6244C119.019 13.6244 117.958 13.7623 116.983 14.0329C116.007 14.306 115.161 14.7095 114.443 15.2407C113.726 15.772 113.163 16.431 112.755 17.2128C112.347 17.9972 112.142 18.8993 112.142 19.9192C112.142 20.9391 112.34 21.771 112.735 22.5378C113.13 23.3071 113.678 23.9562 114.381 24.4899C115.084 25.0211 115.922 25.4321 116.898 25.7178C117.873 26.006 118.941 26.1488 120.105 26.1488C121.268 26.1488 122.263 26.0009 123.224 25.7078C124.185 25.4146 125.02 24.9936 125.73 24.4473C126.441 23.901 126.996 23.2395 127.399 22.4652C127.802 21.6883 128.002 20.8188 128.002 19.8565Z" fill="white"></path>
<path d="M159.887 31.1706V22.2471C159.887 21.127 159.802 20.062 159.629 19.0572C159.456 18.0523 159.136 17.1677 158.671 16.406C158.206 15.6442 157.563 15.0403 156.745 14.5942C155.927 14.1482 154.874 13.9251 153.58 13.9251C152.547 13.9251 151.554 14.1482 150.601 14.5942C149.645 15.0403 148.807 15.6392 148.082 16.3934C147.356 17.1477 146.776 18.0222 146.338 19.0121C145.901 20.0044 145.683 21.0468 145.683 22.1369V31.1706H137.978V0H145.683V14.078C146.716 12.1811 148.169 10.7377 150.041 9.74534C151.912 8.75302 154.053 8.25685 156.465 8.25685C158.488 8.25685 160.204 8.55756 161.618 9.16147C163.031 9.76539 164.182 10.6299 165.072 11.7601C165.963 12.8877 166.608 14.2584 167.009 15.8672C167.411 17.476 167.612 19.2877 167.612 21.2999V31.1731H159.887V31.1706Z" fill="white"></path>
<path d="M200.619 9.08378V31.2006H194.681L193.563 26.3492C193.132 27.2263 192.547 28.0131 191.809 28.7098C191.071 29.4064 190.215 30.0003 189.247 30.4889C188.279 30.9776 187.224 31.351 186.083 31.6091C184.942 31.8672 183.761 31.9975 182.543 31.9975C180.65 31.9975 178.886 31.7143 177.25 31.1455C175.614 30.5792 174.193 29.7773 172.99 28.7424C171.784 27.7074 170.833 26.4645 170.138 25.0136C169.443 23.5627 169.095 21.9464 169.095 20.1622C169.095 18.3781 169.433 16.852 170.105 15.4086C170.778 13.9652 171.704 12.7173 172.882 11.6673C174.058 10.6174 175.439 9.80046 177.025 9.20907C178.611 8.62019 180.314 8.3245 182.135 8.3245C183.514 8.3245 184.832 8.47235 186.095 8.76553C187.359 9.06123 188.517 9.4747 189.57 10.0059C190.626 10.5372 191.561 11.1787 192.379 11.9254C193.197 12.6722 193.843 13.4991 194.316 14.4037L195.306 9.07877H200.622L200.619 9.08378ZM192.915 20.0796C192.915 19.1599 192.715 18.3204 192.312 17.5561C191.909 16.7944 191.354 16.1378 190.643 15.584C189.933 15.0302 189.097 14.6042 188.137 14.301C187.176 14.0003 186.143 13.8474 185.037 13.8474C183.932 13.8474 182.871 13.9853 181.895 14.2559C180.92 14.529 180.074 14.9325 179.356 15.4637C178.638 15.995 178.075 16.654 177.668 17.4359C177.26 18.2202 177.055 19.1223 177.055 20.1422C177.055 21.1621 177.252 21.994 177.648 22.7608C178.043 23.5301 178.591 24.1792 179.294 24.7129C179.997 25.2442 180.835 25.6551 181.813 25.9408C182.788 26.229 183.857 26.3718 185.02 26.3718C186.183 26.3718 187.179 26.224 188.139 25.9308C189.1 25.6376 189.935 25.2166 190.646 24.6703C191.356 24.124 191.912 23.4625 192.314 22.6882C192.715 21.9113 192.917 21.0418 192.917 20.0796H192.915Z" fill="white"></path>
<path d="M254.54 9.08378V31.2006H248.602L247.484 26.3492C247.053 27.2263 246.468 28.0131 245.73 28.7098C244.992 29.4064 244.136 30.0003 243.168 30.4889C242.2 30.9776 241.145 31.351 240.004 31.6091C238.863 31.8672 237.682 31.9975 236.464 31.9975C234.571 31.9975 232.807 31.7143 231.171 31.1455C229.535 30.5792 228.114 29.7773 226.911 28.7424C225.705 27.7074 224.754 26.4645 224.059 25.0136C223.364 23.5627 223.016 21.9464 223.016 20.1622C223.016 18.3781 223.354 16.852 224.026 15.4086C224.699 13.9652 225.625 12.7173 226.803 11.6673C227.979 10.6174 229.36 9.80046 230.946 9.20907C232.532 8.62019 234.235 8.3245 236.056 8.3245C237.435 8.3245 238.753 8.47235 240.016 8.76553C241.28 9.06123 242.438 9.4747 243.491 10.0059C244.547 10.5372 245.482 11.1787 246.3 11.9254C247.118 12.6722 247.764 13.4991 248.237 14.4037L249.227 9.07877H254.543L254.54 9.08378ZM246.836 20.0796C246.836 19.1599 246.636 18.3204 246.233 17.5561C245.83 16.7944 245.275 16.1378 244.564 15.584C243.854 15.0302 243.018 14.6042 242.058 14.301C241.097 14.0003 240.064 13.8474 238.958 13.8474C237.853 13.8474 236.792 13.9853 235.816 14.2559C234.841 14.529 233.995 14.9325 233.277 15.4637C232.559 15.995 231.996 16.654 231.589 17.4359C231.181 18.2202 230.976 19.1223 230.976 20.1422C230.976 21.1621 231.173 21.994 231.569 22.7608C231.964 23.5301 232.512 24.1792 233.215 24.7129C233.918 25.2442 234.756 25.6551 235.734 25.9408C236.709 26.229 237.778 26.3718 238.941 26.3718C240.104 26.3718 241.1 26.224 242.06 25.9308C243.021 25.6376 243.856 25.2166 244.567 24.6703C245.277 24.124 245.833 23.4625 246.235 22.6882C246.636 21.9113 246.838 21.0418 246.838 20.0796H246.836Z" fill="white"></path>
<path d="M221.615 15.7594C221.637 15.7945 221.657 15.8346 221.677 15.8722H221.953V8.46735C221.157 8.32953 220.279 8.25936 219.311 8.25936C218.248 8.25936 217.21 8.43227 216.192 8.77557C215.173 9.12138 214.233 9.5975 213.372 10.2089C212.512 10.8204 211.761 11.5446 211.123 12.3865C210.486 13.2285 210.023 14.1432 209.735 15.1355L208.229 9.05623H202.741V31.1731H210.466V22.2497C210.466 21.33 210.621 20.3803 210.928 19.403C211.236 18.4257 211.684 17.5311 212.274 16.7192C212.862 15.9073 213.587 15.2382 214.448 14.7145C215.309 14.1908 216.299 13.9276 217.417 13.9276C218.465 13.9276 219.329 14.078 220.011 14.3812C220.692 14.6819 221.227 15.143 221.615 15.7619V15.7594Z" fill="white"></path>
<path d="M95.3366 31.0402V12.1209L95.5292 7.91605L93.8382 12.0557L84.5449 31.0377H77.8433L68.55 12.1184L66.8589 7.85089L67.0516 12.0983V31.0377H60.0072V0.32325H70.3936L79.857 19.7137L81.5055 24.8182L83.1541 19.7137L92.6149 0.32325H102.979V31.0402H95.3341H95.3366Z" fill="white"></path>
<path d="M262.175 10.8529L260.311 13.3438H260.099L258.275 10.8454V15.0152H257.197V9.28175H258.44L260.231 11.7475L262.022 9.28175H263.258V15.0152H262.18V10.8554L262.175 10.8529Z" fill="white"></path>
<path d="M268.864 9.30431L266.323 12.0482L269.077 14.94V15.0052H267.744L265.347 12.4667V15.0052H264.269V9.27173H265.347V11.6949L267.521 9.27173H268.862V9.30431H268.864Z" fill="white"></path>
<path d="M271.106 10.254H269.29V9.27173H274V10.254H272.184V15.0052H271.106V10.254Z" fill="white"></path>
<path d="M50.5614 3.9192V3.3253C50.5614 3.09476 50.5489 2.74895 50.4513 2.37808C50.0711 0.942218 48.8528 0.050127 47.2668 0.050127C44.5601 0.050127 41.826 0.0476211 39.0943 0.0426094C35.9248 0.0401035 32.7503 0.0375977 29.6134 0.0375977L29.5208 0.0401035L29.5133 7.60533H38.2462L26.9242 19.7764L18.5565 14.3461C16.6103 13.0832 14.0612 13.5092 12.6278 15.3385L0 31.4713H9.5059L16.8104 22.1419L24.9855 27.4468C26.7816 28.6096 29.1556 28.3314 30.634 26.7803L43.0217 13.4666V15.366L43.0267 31.3334H43.4445V31.3234H50.5364V21.2373C50.5464 21.1295 50.5514 21.0418 50.5539 20.9541C50.5664 15.2432 50.5639 9.48725 50.5614 3.9192Z" fill="#F50480"></path>
</g>
<defs>
<clipPath id="clip0_6_26">
<rect width="274" height="32" fill="white"></rect>
</clipPath>
</defs>
</svg>